<svg width="61" height="60" viewBox="0 0 61 60" fill="none" xmlns="http://www.w3.org/2000/svg">
<rect x="1.8335" y="1.5" width="57" height="57" rx="28.5" stroke="white" stroke-width="3"/>
<path d="M36.3335 32.1668C36.3335 37.0793 32.5278 41.0625 27.8335 41.0625C23.1392 41.0625 19.3335 37.0793 19.3335 32.1668V27.0625H36.3335V32.1668Z" stroke="white" stroke-width="2" stroke-linecap="round" stroke-linejoin="round"/>
<path d="M33.3335 18.9375C33.3335 20.2636 32.7118 21.5354 31.6052 22.473C30.4985 23.4107 28.9976 23.9375 27.4326 23.9375H23.3335C23.3335 22.6114 23.9552 21.3396 25.0618 20.402C26.1685 19.4643 27.6694 18.9375 29.2344 18.9375H33.3335Z" stroke="white" stroke-width="2" stroke-linecap="round" stroke-linejoin="round"/>
<path d="M36.7844 27.0625C37.9909 27.0625 39.148 27.5366 40.0011 28.3805C40.8542 29.2244 41.3335 30.369 41.3335 31.5625C41.3335 32.756 40.8542 33.9006 40.0011 34.7445C39.148 35.5884 37.9909 36.0625 36.7844 36.0625H36.3335" stroke="white" stroke-width="2" stroke-linecap="round" stroke-linejoin="round"/>
</svg>
