<svg width="60" height="60" viewBox="0 0 60 60" fill="none" xmlns="http://www.w3.org/2000/svg">
<rect x="1.5" y="1.5" width="57" height="57" rx="28.5" stroke="white" stroke-width="3"/>
<path d="M30.6162 19.0117L30.6556 18.0125L30.6462 18.0121L30.6368 18.0119L30.6162 19.0117ZM42 28.3301L43 28.3301L43 28.3301L42 28.3301ZM30 37.6592L29.9982 38.6592L30 38.6592L30 37.6592ZM28.0264 37.5342L28.1512 36.542L27.7873 36.4962L27.48 36.6966L28.0264 37.5342ZM22.9883 40.8203L23.4549 41.7048L23.4958 41.6832L23.5346 41.6579L22.9883 40.8203ZM22.4492 40.3496L23.4021 40.6528L23.4127 40.6197L23.4209 40.5859L22.4492 40.3496ZM23.4688 36.1572L24.4404 36.3935L24.6279 35.6228L23.92 35.2648L23.4688 36.1572ZM18 28.3301L17 28.3301V28.3301H18ZM30 18.999L30.0206 17.9992L30.0103 17.999H30V18.999ZM30.6162 19.0117L30.5769 20.0109C36.619 20.2489 41 24.0835 41 28.3301L42 28.3301L43 28.3301C42.9999 22.5911 37.2966 18.2741 30.6556 18.0125L30.6162 19.0117ZM42 28.3301H41C41 32.7107 36.3241 36.6592 30 36.6592L30 37.6592L30 38.6592C36.9308 38.6592 43 34.2547 43 28.3301H42ZM30 37.6592L30.0018 36.6592C29.3827 36.6581 28.7646 36.6192 28.1512 36.542L28.0264 37.5342L27.9016 38.5264C28.5974 38.6139 29.2977 38.6579 29.9982 38.6592L30 37.6592ZM28.0264 37.5342L27.48 36.6966L22.442 39.9827L22.9883 40.8203L23.5346 41.6579L28.5727 38.3718L28.0264 37.5342ZM22.9883 40.8203L22.5216 39.9359C22.392 40.0042 22.3452 40.0195 22.3503 40.018C22.3548 40.0167 22.4144 39.9987 22.5092 39.9992C22.6087 39.9997 22.791 40.0216 22.9779 40.1486C23.1745 40.2823 23.2747 40.463 23.3184 40.6006C23.3572 40.7225 23.3532 40.8115 23.3523 40.8287C23.3508 40.8577 23.3503 40.8157 23.4021 40.6528L22.4492 40.3496L21.4963 40.0464C21.4304 40.2534 21.3668 40.493 21.3549 40.7268C21.3455 40.9118 21.3511 41.4612 21.8536 41.8027C22.301 42.1068 22.7751 41.9773 22.9085 41.9385C23.1052 41.8813 23.2983 41.7874 23.4549 41.7048L22.9883 40.8203ZM22.4492 40.3496L23.4209 40.5859L24.4404 36.3935L23.4688 36.1572L22.4971 35.9209L21.4775 40.1133L22.4492 40.3496ZM23.4688 36.1572L23.92 35.2648C20.864 33.7195 19 31.1301 19 28.3301H18H17C17 32.0871 19.4906 35.2662 23.0175 37.0496L23.4688 36.1572ZM18 28.3301L19 28.3301C19 23.9492 23.6752 19.999 30 19.999V18.999V17.999C23.0677 17.999 17.0001 22.4058 17 28.3301L18 28.3301ZM30 18.999L29.9794 19.9988L30.5956 20.0115L30.6162 19.0117L30.6368 18.0119L30.0206 17.9992L30 18.999Z" fill="white"/>
</svg>
