<svg width="60" height="60" viewBox="0 0 60 60" fill="none" xmlns="http://www.w3.org/2000/svg">
<rect x="1.5" y="1.5" width="57" height="57" rx="28.5" stroke="white" stroke-width="3"/>
<path d="M30.0012 26.4C29.0464 26.4 28.1307 26.7793 27.4556 27.4544C26.7805 28.1295 26.4012 29.0452 26.4012 30C26.4012 30.9548 26.7805 31.8705 27.4556 32.5456C28.1307 33.2207 29.0464 33.6 30.0012 33.6C30.956 33.6 31.8717 33.2207 32.5468 32.5456C33.2219 31.8705 33.6012 30.9548 33.6012 30C33.6012 29.0452 33.2219 28.1295 32.5468 27.4544C31.8717 26.7793 30.956 26.4 30.0012 26.4ZM30.0012 24C31.5925 24 33.1186 24.6321 34.2438 25.7574C35.3691 26.8826 36.0012 28.4087 36.0012 30C36.0012 31.5913 35.3691 33.1174 34.2438 34.2426C33.1186 35.3679 31.5925 36 30.0012 36C28.4099 36 26.8838 35.3679 25.7586 34.2426C24.6333 33.1174 24.0012 31.5913 24.0012 30C24.0012 28.4087 24.6333 26.8826 25.7586 25.7574C26.8838 24.6321 28.4099 24 30.0012 24ZM37.8012 23.7C37.8012 24.0978 37.6432 24.4794 37.3619 24.7607C37.0806 25.042 36.699 25.2 36.3012 25.2C35.9034 25.2 35.5218 25.042 35.2405 24.7607C34.9592 24.4794 34.8012 24.0978 34.8012 23.7C34.8012 23.3022 34.9592 22.9206 35.2405 22.6393C35.5218 22.358 35.9034 22.2 36.3012 22.2C36.699 22.2 37.0806 22.358 37.3619 22.6393C37.6432 22.9206 37.8012 23.3022 37.8012 23.7ZM30.0012 20.4C27.0324 20.4 26.5476 20.4084 25.1664 20.4696C24.2256 20.514 23.5944 20.64 23.0088 20.868C22.5187 21.0479 22.0757 21.3363 21.7128 21.7116C21.3372 22.0745 21.0484 22.5175 20.868 23.0076C20.64 23.5956 20.514 24.2256 20.4708 25.1652C20.4084 26.49 20.4 26.9532 20.4 30C20.4 32.97 20.4084 33.4536 20.4696 34.8348C20.514 35.7744 20.64 36.4068 20.8668 36.9912C21.0708 37.5132 21.3108 37.8888 21.7092 38.2872C22.1136 38.6904 22.4892 38.9316 23.0052 39.1308C23.598 39.36 24.2292 39.4872 25.1652 39.5304C26.49 39.5928 26.9532 39.6 30 39.6C32.97 39.6 33.4536 39.5916 34.8348 39.5304C35.7732 39.486 36.4044 39.36 36.9912 39.1332C37.4808 38.9524 37.9237 38.6641 38.2872 38.2896C38.6916 37.8864 38.9328 37.5108 39.132 36.9936C39.36 36.4032 39.4872 35.772 39.5304 34.8336C39.5928 33.51 39.6 33.0456 39.6 30C39.6 27.0312 39.5916 26.5464 39.5304 25.1652C39.486 24.2268 39.3588 23.5932 39.132 23.0076C38.9511 22.518 38.6629 22.0752 38.2884 21.7116C37.9257 21.3358 37.4826 21.047 36.9924 20.8668C36.4044 20.6388 35.7732 20.5128 34.8348 20.4696C33.5112 20.4072 33.048 20.4 30 20.4M30 18C33.2604 18 33.6672 18.012 34.9476 18.072C36.2244 18.132 37.0956 18.3324 37.86 18.63C38.652 18.9348 39.3192 19.3476 39.9864 20.0136C40.5966 20.6135 41.0687 21.3391 41.37 22.14C41.6664 22.9044 41.868 23.7756 41.928 25.0536C41.9844 26.3328 42 26.7396 42 30C42 33.2604 41.988 33.6672 41.928 34.9464C41.868 36.2244 41.6664 37.0944 41.37 37.86C41.0696 38.6613 40.5973 39.3871 39.9864 39.9864C39.3864 40.5964 38.6608 41.0685 37.86 41.37C37.0956 41.6664 36.2244 41.868 34.9476 41.928C33.6672 41.9844 33.2604 42 30 42C26.7396 42 26.3328 41.988 25.0524 41.928C23.7756 41.868 22.9056 41.6664 22.14 41.37C21.3388 41.0694 20.613 40.5971 20.0136 39.9864C19.4033 39.3866 18.9312 38.6609 18.63 37.86C18.3324 37.0956 18.132 36.2244 18.072 34.9464C18.0144 33.6672 18 33.2604 18 30C18 26.7396 18.012 26.3328 18.072 25.0536C18.132 23.7756 18.3324 22.9056 18.63 22.14C18.9303 21.3386 19.4026 20.6128 20.0136 20.0136C20.6132 19.4031 21.3389 18.9309 22.14 18.63C22.9044 18.3324 23.7744 18.132 25.0524 18.072C26.334 18.0156 26.7408 18 30.0012 18" fill="white"/>
</svg>
